<group>
ampeg_attack=0.004000
ampeg_release=0.300000

<region>
seq_length=2
seq_position=1
lovel=0
hivel=58
sample=Upright Piano, Yamaha/Sustains/Upright1_Sus_C0_vl1_rr1.wav
pitch_keycenter=24
lokey=24
hikey=27
volume=24.651838

<region>
seq_length=2
seq_position=2
lovel=0
hivel=58
sample=Upright Piano, Yamaha/Sustains/Upright1_Sus_C0_vl1_rr2.wav
pitch_keycenter=24
lokey=24
hikey=27
volume=18.303640

<region>
lovel=59
hivel=95
sample=Upright Piano, Yamaha/Sustains/Upright1_Sus_C0_vl2_rr1.wav
pitch_keycenter=24
lokey=24
hikey=27
volume=3.641084

<region>
seq_length=2
seq_position=1
lovel=96
hivel=127
sample=Upright Piano, Yamaha/Sustains/Upright1_Sus_C0_vl3_rr1.wav
pitch_keycenter=24
lokey=24
hikey=27
volume=1.807817

<region>
seq_length=2
seq_position=2
lovel=96
hivel=127
sample=Upright Piano, Yamaha/Sustains/Upright1_Sus_C0_vl3_rr2.wav
pitch_keycenter=24
lokey=24
hikey=27
tune=8
volume=-4.708172

<region>
lovel=0
hivel=58
sample=Upright Piano, Yamaha/Sustains/Upright1_Sus_G0_vl1_rr1.wav
pitch_keycenter=31
lokey=28
hikey=33
tune=8
volume=25.440483

<region>
lovel=59
hivel=95
sample=Upright Piano, Yamaha/Sustains/Upright1_Sus_G0_vl2_rr1.wav
pitch_keycenter=31
lokey=28
hikey=33
tune=-2
volume=4.228881

<region>
lovel=96
hivel=127
sample=Upright Piano, Yamaha/Sustains/Upright1_Sus_G0_vl3_rr1.wav
pitch_keycenter=31
lokey=28
hikey=33
tune=5
volume=-4.552590

<region>
lovel=0
hivel=58
sample=Upright Piano, Yamaha/Sustains/Upright1_Sus_C1_vl1_rr1.wav
pitch_keycenter=36
lokey=34
hikey=39
tune=3
volume=22.527336

<region>
seq_length=2
seq_position=1
lovel=59
hivel=95
sample=Upright Piano, Yamaha/Sustains/Upright1_Sus_C1_vl2_rr1.wav
pitch_keycenter=36
lokey=34
hikey=39
tune=1
volume=8.829127

<region>
seq_length=2
seq_position=2
lovel=59
hivel=95
sample=Upright Piano, Yamaha/Sustains/Upright1_Sus_C1_vl2_rr2.wav
pitch_keycenter=36
lokey=34
hikey=39
tune=-4
volume=-0.345603

<region>
seq_length=2
seq_position=1
lovel=96
hivel=127
sample=Upright Piano, Yamaha/Sustains/Upright1_Sus_C1_vl3_rr1.wav
pitch_keycenter=36
lokey=34
hikey=39
tune=-5
volume=-5.323115

<region>
seq_length=2
seq_position=2
lovel=96
hivel=127
sample=Upright Piano, Yamaha/Sustains/Upright1_Sus_C1_vl3_rr2.wav
pitch_keycenter=36
lokey=34
hikey=39
tune=-6
volume=-6.378471

<region>
lovel=0
hivel=58
sample=Upright Piano, Yamaha/Sustains/Upright1_Sus_G1_vl1_rr1.wav
pitch_keycenter=43
lokey=40
hikey=45
volume=16.925918

<region>
seq_length=2
seq_position=1
lovel=59
hivel=95
sample=Upright Piano, Yamaha/Sustains/Upright1_Sus_G1_vl2_rr1.wav
pitch_keycenter=43
lokey=40
hikey=45
tune=-3
volume=7.989024

<region>
seq_length=2
seq_position=2
lovel=59
hivel=95
sample=Upright Piano, Yamaha/Sustains/Upright1_Sus_G1_vl2_rr2.wav
pitch_keycenter=43
lokey=40
hikey=45
tune=-6
volume=1.741346

<region>
seq_length=2
seq_position=1
lovel=96
hivel=127
sample=Upright Piano, Yamaha/Sustains/Upright1_Sus_G1_vl3_rr1.wav
pitch_keycenter=43
lokey=40
hikey=45
tune=-9
volume=-6.607382

<region>
seq_length=2
seq_position=2
lovel=96
hivel=127
sample=Upright Piano, Yamaha/Sustains/Upright1_Sus_G1_vl3_rr2.wav
pitch_keycenter=43
lokey=40
hikey=45
tune=-9
volume=-8.019660

<region>
seq_length=2
seq_position=1
lovel=0
hivel=58
sample=Upright Piano, Yamaha/Sustains/Upright1_Sus_C2_vl1_rr1.wav
pitch_keycenter=48
lokey=46
hikey=51
tune=1
volume=34.028239

<region>
seq_length=2
seq_position=2
lovel=0
hivel=58
sample=Upright Piano, Yamaha/Sustains/Upright1_Sus_C2_vl1_rr2.wav
pitch_keycenter=48
lokey=46
hikey=51
tune=1
volume=25.033653

<region>
seq_length=2
seq_position=1
lovel=59
hivel=95
sample=Upright Piano, Yamaha/Sustains/Upright1_Sus_C2_vl2_rr1.wav
pitch_keycenter=48
lokey=46
hikey=51
tune=-1
volume=4.888998

<region>
seq_length=2
seq_position=2
lovel=59
hivel=95
sample=Upright Piano, Yamaha/Sustains/Upright1_Sus_C2_vl2_rr2.wav
pitch_keycenter=48
lokey=46
hikey=51
tune=-2
volume=0.097862

<region>
seq_length=2
seq_position=1
lovel=96
hivel=127
sample=Upright Piano, Yamaha/Sustains/Upright1_Sus_C2_vl3_rr1.wav
pitch_keycenter=48
lokey=46
hikey=51
tune=-3
volume=-5.108011

<region>
seq_length=2
seq_position=2
lovel=96
hivel=127
sample=Upright Piano, Yamaha/Sustains/Upright1_Sus_C2_vl3_rr2.wav
pitch_keycenter=48
lokey=46
hikey=51
tune=-3
volume=-4.966514

<region>
seq_length=2
seq_position=1
lovel=0
hivel=58
sample=Upright Piano, Yamaha/Sustains/Upright1_Sus_G2_vl1_rr1.wav
pitch_keycenter=55
lokey=52
hikey=57
volume=15.013207

<region>
seq_length=2
seq_position=2
lovel=0
hivel=58
sample=Upright Piano, Yamaha/Sustains/Upright1_Sus_G2_vl1_rr2.wav
pitch_keycenter=55
lokey=52
hikey=57
volume=9.920328

<region>
seq_length=2
seq_position=1
lovel=59
hivel=95
sample=Upright Piano, Yamaha/Sustains/Upright1_Sus_G2_vl2_rr1.wav
pitch_keycenter=55
lokey=52
hikey=57
tune=-5
volume=0.476154

<region>
seq_length=2
seq_position=2
lovel=59
hivel=95
sample=Upright Piano, Yamaha/Sustains/Upright1_Sus_G2_vl2_rr2.wav
pitch_keycenter=55
lokey=52
hikey=57
tune=-6
volume=0.332269

<region>
seq_length=2
seq_position=1
lovel=96
hivel=127
sample=Upright Piano, Yamaha/Sustains/Upright1_Sus_G2_vl3_rr1.wav
pitch_keycenter=55
lokey=52
hikey=57
tune=-8
volume=-9.224868

<region>
seq_length=2
seq_position=2
lovel=96
hivel=127
sample=Upright Piano, Yamaha/Sustains/Upright1_Sus_G2_vl3_rr2.wav
pitch_keycenter=55
lokey=52
hikey=57
tune=-8
volume=-7.251521

<region>
seq_length=2
seq_position=1
lovel=0
hivel=58
sample=Upright Piano, Yamaha/Sustains/Upright1_Sus_C3_vl1_rr1.wav
pitch_keycenter=60
lokey=58
hikey=63
volume=15.955601

<region>
seq_length=2
seq_position=2
lovel=0
hivel=58
sample=Upright Piano, Yamaha/Sustains/Upright1_Sus_C3_vl1_rr2.wav
pitch_keycenter=60
lokey=58
hikey=63
volume=32.618421

<region>
seq_length=2
seq_position=1
lovel=59
hivel=95
sample=Upright Piano, Yamaha/Sustains/Upright1_Sus_C3_vl2_rr1.wav
pitch_keycenter=60
lokey=58
hikey=63
tune=-2
volume=4.158663

<region>
seq_length=2
seq_position=2
lovel=59
hivel=95
sample=Upright Piano, Yamaha/Sustains/Upright1_Sus_C3_vl2_rr2.wav
pitch_keycenter=60
lokey=58
hikey=63
tune=-2
volume=0.926395

<region>
seq_length=2
seq_position=1
lovel=96
hivel=127
sample=Upright Piano, Yamaha/Sustains/Upright1_Sus_C3_vl3_rr1.wav
pitch_keycenter=60
lokey=58
hikey=63
tune=-5
volume=-6.940383

<region>
seq_length=2
seq_position=2
lovel=96
hivel=127
sample=Upright Piano, Yamaha/Sustains/Upright1_Sus_C3_vl3_rr2.wav
pitch_keycenter=60
lokey=58
hikey=63
tune=-4
volume=-6.136041

<region>
seq_length=2
seq_position=1
lovel=0
hivel=58
sample=Upright Piano, Yamaha/Sustains/Upright1_Sus_G3_vl1_rr1.wav
pitch_keycenter=67
lokey=64
hikey=69
tune=-2
volume=17.189059

<region>
seq_length=2
seq_position=2
lovel=0
hivel=58
sample=Upright Piano, Yamaha/Sustains/Upright1_Sus_G3_vl1_rr2.wav
pitch_keycenter=67
lokey=64
hikey=69
tune=-1
volume=21.144332

<region>
seq_length=2
seq_position=1
lovel=59
hivel=95
sample=Upright Piano, Yamaha/Sustains/Upright1_Sus_G3_vl2_rr1.wav
pitch_keycenter=67
lokey=64
hikey=69
tune=-4
volume=8.526520

<region>
seq_length=2
seq_position=2
lovel=59
hivel=95
sample=Upright Piano, Yamaha/Sustains/Upright1_Sus_G3_vl2_rr2.wav
pitch_keycenter=67
lokey=64
hikey=69
tune=-6
volume=1.343567

<region>
seq_length=2
seq_position=1
lovel=96
hivel=127
sample=Upright Piano, Yamaha/Sustains/Upright1_Sus_G3_vl3_rr1.wav
pitch_keycenter=67
lokey=64
hikey=69
tune=-7
volume=-4.881486

<region>
seq_length=2
seq_position=2
lovel=96
hivel=127
sample=Upright Piano, Yamaha/Sustains/Upright1_Sus_G3_vl3_rr2.wav
pitch_keycenter=67
lokey=64
hikey=69
tune=-8
volume=-5.323157

<region>
seq_length=2
seq_position=1
lovel=0
hivel=58
sample=Upright Piano, Yamaha/Sustains/Upright1_Sus_C4_vl1_rr1.wav
pitch_keycenter=72
lokey=70
hikey=75
tune=-2
volume=12.450003

<region>
seq_length=2
seq_position=2
lovel=0
hivel=58
sample=Upright Piano, Yamaha/Sustains/Upright1_Sus_C4_vl1_rr2.wav
pitch_keycenter=72
lokey=70
hikey=75
tune=-1
volume=12.283262

<region>
seq_length=2
seq_position=1
lovel=59
hivel=95
sample=Upright Piano, Yamaha/Sustains/Upright1_Sus_C4_vl2_rr1.wav
pitch_keycenter=72
lokey=70
hikey=75
tune=-3
volume=1.952150

<region>
seq_length=2
seq_position=2
lovel=59
hivel=95
sample=Upright Piano, Yamaha/Sustains/Upright1_Sus_C4_vl2_rr2.wav
pitch_keycenter=72
lokey=70
hikey=75
tune=-4
volume=-1.440761

<region>
seq_length=2
seq_position=1
lovel=96
hivel=127
sample=Upright Piano, Yamaha/Sustains/Upright1_Sus_C4_vl3_rr1.wav
pitch_keycenter=72
lokey=70
hikey=75
tune=-6
volume=-8.856524

<region>
seq_length=2
seq_position=2
lovel=96
hivel=127
sample=Upright Piano, Yamaha/Sustains/Upright1_Sus_C4_vl3_rr2.wav
pitch_keycenter=72
lokey=70
hikey=75
tune=-6
volume=-8.246340

<region>
seq_length=2
seq_position=1
lovel=0
hivel=58
sample=Upright Piano, Yamaha/Sustains/Upright1_Sus_G4_vl1_rr1.wav
pitch_keycenter=79
lokey=76
hikey=81
tune=3
volume=14.718828

<region>
seq_length=2
seq_position=2
lovel=0
hivel=58
sample=Upright Piano, Yamaha/Sustains/Upright1_Sus_G4_vl1_rr2.wav
pitch_keycenter=79
lokey=76
hikey=81
tune=3
volume=16.397055

<region>
seq_length=2
seq_position=1
lovel=59
hivel=95
sample=Upright Piano, Yamaha/Sustains/Upright1_Sus_G4_vl2_rr1.wav
pitch_keycenter=79
lokey=76
hikey=81
volume=-0.983270

<region>
seq_length=2
seq_position=2
lovel=59
hivel=95
sample=Upright Piano, Yamaha/Sustains/Upright1_Sus_G4_vl2_rr2.wav
pitch_keycenter=79
lokey=76
hikey=81
volume=-0.844937

<region>
seq_length=2
seq_position=1
lovel=96
hivel=127
sample=Upright Piano, Yamaha/Sustains/Upright1_Sus_G4_vl3_rr1.wav
pitch_keycenter=79
lokey=76
hikey=81
tune=-1
volume=-7.290823

<region>
seq_length=2
seq_position=2
lovel=96
hivel=127
sample=Upright Piano, Yamaha/Sustains/Upright1_Sus_G4_vl3_rr2.wav
pitch_keycenter=79
lokey=76
hikey=81
tune=-1
volume=-6.398889

<region>
seq_length=2
seq_position=1
lovel=0
hivel=58
sample=Upright Piano, Yamaha/Sustains/Upright1_Sus_C5_vl1_rr1.wav
pitch_keycenter=84
lokey=82
hikey=87
volume=35.339234

<region>
seq_length=2
seq_position=2
lovel=0
hivel=58
sample=Upright Piano, Yamaha/Sustains/Upright1_Sus_C5_vl1_rr2.wav
pitch_keycenter=84
lokey=82
hikey=87
tune=1
volume=21.711033

<region>
seq_length=2
seq_position=1
lovel=59
hivel=95
sample=Upright Piano, Yamaha/Sustains/Upright1_Sus_C5_vl2_rr1.wav
pitch_keycenter=84
lokey=82
hikey=87
tune=1
volume=5.431828

<region>
seq_length=2
seq_position=2
lovel=59
hivel=95
sample=Upright Piano, Yamaha/Sustains/Upright1_Sus_C5_vl2_rr2.wav
pitch_keycenter=84
lokey=82
hikey=87
tune=2
volume=5.187154

<region>
seq_length=2
seq_position=1
lovel=96
hivel=127
sample=Upright Piano, Yamaha/Sustains/Upright1_Sus_C5_vl3_rr1.wav
pitch_keycenter=84
lokey=82
hikey=87
volume=-1.760180

<region>
seq_length=2
seq_position=2
lovel=96
hivel=127
sample=Upright Piano, Yamaha/Sustains/Upright1_Sus_C5_vl3_rr2.wav
pitch_keycenter=84
lokey=82
hikey=87
volume=-1.028626

<region>
seq_length=2
seq_position=1
lovel=0
hivel=58
sample=Upright Piano, Yamaha/Sustains/Upright1_Sus_G5_vl1_rr1.wav
pitch_keycenter=91
lokey=88
hikey=93
volume=33.587041

<region>
seq_length=2
seq_position=2
lovel=0
hivel=58
sample=Upright Piano, Yamaha/Sustains/Upright1_Sus_G5_vl1_rr2.wav
pitch_keycenter=91
lokey=88
hikey=93
volume=20.329433

<region>
seq_length=2
seq_position=1
lovel=59
hivel=95
sample=Upright Piano, Yamaha/Sustains/Upright1_Sus_G5_vl2_rr1.wav
pitch_keycenter=91
lokey=88
hikey=93
tune=1
volume=7.090187

<region>
seq_length=2
seq_position=2
lovel=59
hivel=95
sample=Upright Piano, Yamaha/Sustains/Upright1_Sus_G5_vl2_rr2.wav
pitch_keycenter=91
lokey=88
hikey=93
tune=1
volume=5.771573

<region>
seq_length=3
seq_position=1
lovel=96
hivel=127
sample=Upright Piano, Yamaha/Sustains/Upright1_Sus_G5_vl3_rr1.wav
pitch_keycenter=91
lokey=88
hikey=93
tune=-5
volume=-2.505636

<region>
seq_length=3
seq_position=2
lovel=96
hivel=127
sample=Upright Piano, Yamaha/Sustains/Upright1_Sus_G5_vl3_rr2.wav
pitch_keycenter=91
lokey=88
hikey=93
volume=2.811057

<region>
seq_length=3
seq_position=3
lovel=96
hivel=127
sample=Upright Piano, Yamaha/Sustains/Upright1_Sus_G5_vl3_rr3.wav
pitch_keycenter=91
lokey=88
hikey=93
tune=-2
volume=-1.903197

<region>
seq_length=2
seq_position=1
lovel=0
hivel=77
sample=Upright Piano, Yamaha/Sustains/Upright1_Sus_C6_vl2_rr1.wav
pitch_keycenter=96
lokey=94
hikey=97
volume=2.532214

<region>
seq_length=2
seq_position=2
lovel=0
hivel=77
sample=Upright Piano, Yamaha/Sustains/Upright1_Sus_C6_vl2_rr2.wav
pitch_keycenter=96
lokey=94
hikey=97
volume=8.610472

<region>
seq_length=2
seq_position=1
lovel=78
hivel=127
sample=Upright Piano, Yamaha/Sustains/Upright1_Sus_C6_vl3_rr1.wav
pitch_keycenter=96
lokey=94
hikey=97
volume=-3.211388

<region>
seq_length=2
seq_position=2
lovel=78
hivel=127
sample=Upright Piano, Yamaha/Sustains/Upright1_Sus_C6_vl3_rr2.wav
pitch_keycenter=96
lokey=94
hikey=97
volume=-2.995163

